# xmcd
#
# Track frame offsets:
#	150
#	17835
#	32215
#	54175
#	68072
#	80857
#	94385
#	107787
#	121757
#	132797
#	147260
#	163797
#	175632
#	191202
#	207272
#	225442
#
# Disc length: 3169 seconds
#
# Revision: 1
# Processed by: cddbd v1.5.2PL0 Copyright (c) Steve Scherf et al.
# Submitted via: audiograbber 1.83.01
#
DISCID=db0c5f10
DTITLE=Various Artist - The Steppin' Out Collection CD2
DYEAR=1999
DGENRE=Country
TTITLE0=Sean Kenny - Black Coffee
TTITLE1=Bellamy Brothers The - If i said you had a Beautiful Body
TTITLE2=Corridor 38 - Born in Britain
TTITLE3=Sayer  Chris - It's Alright, It's Really Alright
TTITLE4=Good Ol' Greenwood Boys - What's your Name
TTITLE5=Swisshelm John P. - Toe-Tappin' Country Man
TTITLE6=Capricorn - Here there and Everywhere
TTITLE7=Mississippi Skinny Dippers - Can't get over this Thing i've got for you
TTITLE8=Terry Michael - Turning Up the Heat
TTITLE9=Bellamy Brothers The - Get Into Reggae Cowboy
TTITLE10=Capricorn - Thinkin' bout you
TTITLE11=Good Ol' Greenwood Boys - Lone Ranger
TTITLE12=Richmond Simon - I don't do said Anymore
TTITLE13=Coty's Ride - Ready to be Wrong
TTITLE14=Les Payne Posse - No Money
TTITLE15=SAYER  Chris - One Time too Many
EXTD=
EXTT0=
EXTT1=
EXTT2=
EXTT3=
EXTT4=
EXTT5=
EXTT6=
EXTT7=
EXTT8=
EXTT9=
EXTT10=
EXTT11=
EXTT12=
EXTT13=
EXTT14=
EXTT15=
PLAYORDER=
